<?xml version="1.0" encoding="UTF-8"?> <svg xmlns="http://www.w3.org/2000/svg" xmlns:xlink="http://www.w3.org/1999/xlink" width="131px" height="57px" viewBox="0 0 131 57" version="1.1"><title>88115A5A-CB76-4051-BE41-28CB04107EDB</title><g id="Symbols" stroke="none" stroke-width="1" fill="none" fill-rule="evenodd"><g id="logo-/-horizontal-/-negative"><g id="Group-29"><polygon id="Fill-1" fill="#FFFFFF" points="53.0426 9.3202 51.2726 9.3202 51.2726 7.7892 56.6406 7.7892 56.6406 9.3202 54.8716 9.3202 54.8716 18.0252 53.0426 18.0252"></polygon><polygon id="Fill-2" fill="#FFFFFF" points="57.1422 18.0248 57.1422 7.7888 58.9702 7.7888 58.9702 11.9568 60.9172 11.9568 60.9172 7.7888 62.7462 7.7888 62.7462 18.0248 60.9172 18.0248 60.9172 13.4878 58.9702 13.4878 58.9702 18.0248"></polygon><polygon id="Fill-3" fill="#FFFFFF" points="63.8517 18.0248 63.8517 7.7888 68.7477 7.7888 68.7477 9.3198 65.6797 9.3198 65.6797 11.9568 68.0397 11.9568 68.0397 13.4878 65.6797 13.4878 65.6797 16.4938 68.9537 16.4938 68.9537 18.0248"></polygon><polygon id="Fill-4" fill="#FFFFFF" points="64.1876 19.1395 64.1876 35.0615 61.7696 35.0615 61.7696 22.6235 61.7246 22.6235 59.2186 35.0615 57.8756 35.0615 55.3686 22.6235 55.3236 22.6235 55.3236 35.0615 52.9066 35.0615 52.9066 19.1395 56.5546 19.1395 58.5246 28.4465 58.5686 28.4465 60.5386 19.1395"></polygon><polygon id="Fill-5" fill="#FFFFFF" points="66.225 35.062 69.001 35.062 69.001 19.14 66.225 19.14"></polygon><g id="Group-28" transform="translate(0.000000, 0.373000)"><path d="M76.1188,22.6923 C76.0068,21.3253 75.2678,20.9283 74.6418,20.9283 C73.7458,20.9283 73.2538,21.5013 73.2538,22.4933 C73.2538,25.2063 78.8948,26.5073 78.8948,30.8303 C78.8948,33.4543 77.1038,34.9103 74.5078,34.9103 C71.9338,34.9103 70.4558,32.8813 70.3438,30.4993 L72.9848,30.1243 C73.0978,31.7343 73.7458,32.5283 74.6418,32.5283 C75.6038,32.5283 76.2538,32.0213 76.2538,31.0723 C76.2538,27.9193 70.6128,27.0813 70.6128,22.5163 C70.6128,19.9803 72.1798,18.5463 74.9108,18.5463 C77.1708,18.5463 78.5148,20.1563 78.7608,22.4053 L76.1188,22.6923 Z" id="Fill-6" fill="#FFFFFF"></path><path d="M85.1847,22.6923 C85.0727,21.3253 84.3337,20.9283 83.7067,20.9283 C82.8127,20.9283 82.3197,21.5013 82.3197,22.4933 C82.3197,25.2063 87.9597,26.5073 87.9597,30.8303 C87.9597,33.4543 86.1697,34.9103 83.5727,34.9103 C80.9987,34.9103 79.5217,32.8813 79.4097,30.4993 L82.0507,30.1243 C82.1627,31.7343 82.8127,32.5283 83.7067,32.5283 C84.6697,32.5283 85.3187,32.0213 85.3187,31.0723 C85.3187,27.9193 79.6787,27.0813 79.6787,22.5163 C79.6787,19.9803 81.2447,18.5463 83.9767,18.5463 C86.2367,18.5463 87.5797,20.1563 87.8257,22.4053 L85.1847,22.6923 Z" id="Fill-8" fill="#FFFFFF"></path><polygon id="Fill-10" fill="#FFFFFF" points="89.482 34.689 92.149 34.689 92.149 18.767 89.482 18.767"></polygon><path d="M93.8942,22.6264 C93.8942,20.3774 95.2302,18.5464 98.1262,18.5464 C101.0222,18.5464 102.3592,20.3774 102.3592,22.6264 L102.3592,30.8304 C102.3592,33.0794 101.0222,34.9104 98.1262,34.9104 C95.2302,34.9104 93.8942,33.0794 93.8942,30.8304 L93.8942,22.6264 Z M96.6562,30.7644 C96.6562,31.9554 97.0132,32.5284 98.1262,32.5284 C99.2402,32.5284 99.5972,31.9554 99.5972,30.7644 L99.5972,22.6924 C99.5972,21.5014 99.2402,20.9284 98.1262,20.9284 C97.0132,20.9284 96.6562,21.5014 96.6562,22.6924 L96.6562,30.7644 Z" id="Fill-12" fill="#FFFFFF"></path><polygon id="Fill-13" fill="#FFFFFF" points="104.0382 34.6894 104.0382 18.7674 106.5742 18.7674 109.9042 27.8754 109.9482 27.8754 109.9482 18.7674 112.4182 18.7674 112.4182 34.6894 110.0362 34.6894 106.5522 24.7434 106.5082 24.7434 106.5082 34.6894"></polygon><path d="M58.2628,41.1996 L58.2628,39.9946 C58.2628,38.6816 57.6598,38.1216 56.9718,38.1216 C55.8948,38.1216 55.5508,38.6816 55.5508,39.8436 L55.5508,47.7206 C55.5508,48.8826 55.8948,49.4426 56.9718,49.4426 C57.9398,49.4426 58.2628,48.8826 58.2628,47.8716 L58.2628,45.9996 L60.9318,45.9996 L60.9318,47.7856 C60.9318,49.9806 59.6398,51.7676 56.9718,51.7676 C54.1738,51.7676 52.8818,49.9806 52.8818,47.7856 L52.8818,39.7796 C52.8818,37.5836 54.1738,35.7976 56.9718,35.7976 C59.6398,35.7976 60.9318,37.7346 60.9318,40.0586 L60.9318,41.1996 L58.2628,41.1996 Z" id="Fill-14" fill="#FFFFFF"></path><path d="M62.2443,39.7792 C62.2443,37.5842 63.5353,35.7972 66.3343,35.7972 C69.1313,35.7972 70.4233,37.5842 70.4233,39.7792 L70.4233,47.7852 C70.4233,49.9812 69.1313,51.7672 66.3343,51.7672 C63.5353,51.7672 62.2443,49.9812 62.2443,47.7852 L62.2443,39.7792 Z M64.9133,47.7212 C64.9133,48.8832 65.2573,49.4422 66.3343,49.4422 C67.4103,49.4422 67.7543,48.8832 67.7543,47.7212 L67.7543,39.8432 C67.7543,38.6812 67.4103,38.1212 66.3343,38.1212 C65.2573,38.1212 64.9133,38.6812 64.9133,39.8432 L64.9133,47.7212 Z" id="Fill-15" fill="#FFFFFF"></path><polygon id="Fill-16" fill="#FFFFFF" points="71.8869 51.5517 71.8869 36.0127 74.3619 36.0127 77.6119 44.9007 77.6549 44.9007 77.6549 36.0127 80.0659 36.0127 80.0659 51.5517 77.7409 51.5517 74.3409 41.8447 74.2979 41.8447 74.2979 51.5517"></polygon><polygon id="Fill-17" fill="#FFFFFF" points="83.338 38.3369 80.755 38.3369 80.755 36.0129 88.589 36.0129 88.589 38.3369 86.006 38.3369 86.006 51.5519 83.338 51.5519"></polygon><polygon id="Fill-18" fill="#FFFFFF" points="89.471 51.552 92.14 51.552 92.14 36.013 89.471 36.013"></polygon><polygon id="Fill-19" fill="#FFFFFF" points="94.0929 51.5517 94.0929 36.0127 96.5969 36.0127 99.8869 44.9007 99.9299 44.9007 99.9299 36.0127 102.3689 36.0127 102.3689 51.5517 100.0169 51.5517 96.5759 41.8447 96.5329 41.8447 96.5329 51.5517"></polygon><path d="M104.0216,36.0126 L106.7596,36.0126 L106.7596,47.7426 C106.7596,48.8826 107.2226,49.4426 108.2166,49.4426 C109.2106,49.4426 109.6746,48.8826 109.6746,47.7426 L109.6746,36.0126 L112.4126,36.0126 L112.4126,47.6346 C112.4126,50.3036 110.8226,51.7676 108.2166,51.7676 C105.6116,51.7676 104.0216,50.3036 104.0216,47.6346 L104.0216,36.0126 Z" id="Fill-20" fill="#FFFFFF"></path><polygon id="Fill-21" fill="#FFFFFF" points="113.9474 51.5517 113.9474 36.0127 121.0924 36.0127 121.0924 38.3367 116.6164 38.3367 116.6164 42.3407 120.0604 42.3407 120.0604 44.6647 116.6164 44.6647 116.6164 49.2277 121.3944 49.2277 121.3944 51.5517"></polygon><path d="M127.3986,39.8437 C127.2906,38.5097 126.5806,38.1217 125.9776,38.1217 C125.1176,38.1217 124.6436,38.6817 124.6436,39.6497 C124.6436,42.2967 130.0676,43.5677 130.0676,47.7857 C130.0676,50.3467 128.3456,51.7677 125.8486,51.7677 C123.3736,51.7677 121.9536,49.7877 121.8466,47.4627 L124.3856,47.0967 C124.4926,48.6687 125.1176,49.4427 125.9776,49.4427 C126.9036,49.4427 127.5286,48.9477 127.5286,48.0227 C127.5286,44.9447 122.1046,44.1267 122.1046,39.6717 C122.1046,37.1967 123.6106,35.7977 126.2366,35.7977 C128.4106,35.7977 129.7016,37.3687 129.9386,39.5637 L127.3986,39.8437 Z" id="Fill-22" fill="#FFFFFF"></path><path d="M23.1222,54.6718 C8.6442,48.4868 0.0002,39.1668 0.0002,29.7408 L0.0002,7.2388 L0.8552,6.6568 C1.2172,6.4108 9.8792,0.6268 23.3232,0.6268 C23.5112,0.6268 23.7002,0.6268 23.8912,0.6288 C24.0802,0.6268 24.2702,0.6268 24.4582,0.6268 C37.9032,0.6268 46.5632,6.4108 46.9252,6.6578 L47.7802,7.2388 L47.7802,29.7408 C47.7802,39.1668 39.1372,48.4878 24.6582,54.6718 L23.8902,54.9998 L23.1222,54.6718 Z" id="Fill-23" fill="#A5A9AB"></path><path d="M45.9274,8.1245 C45.8434,8.0675 37.3624,2.4005 24.4574,2.4005 C24.2704,2.4005 24.0784,2.4015 23.8934,2.4045 C23.7014,2.4015 23.5124,2.4005 23.3234,2.4005 C10.4184,2.4005 1.9374,8.0675 1.8524,8.1245 L1.7744,8.1785 L1.7744,29.7405 C1.7744,38.4345 10.0144,47.1445 23.8184,53.0405 L23.8894,53.0715 L23.9604,53.0405 C37.7654,47.1445 46.0064,38.4345 46.0064,29.7405 L46.0064,8.1785 L45.9274,8.1245 Z" id="Fill-24" fill="#0C426A"></path><path d="M35.2081,28.9174 C35.8241,29.2554 37.1441,30.1584 37.6921,31.9084 C38.3621,34.0514 38.0631,36.0074 36.8041,37.7184 C35.0251,40.1384 31.6071,41.5864 28.5381,42.3514 C24.7341,43.1894 21.3591,42.9164 21.3591,42.9164 L22.3021,42.2664 C22.3021,42.2664 18.3151,42.7434 16.8271,41.6544 C23.7881,39.6204 26.8641,37.3784 26.8641,35.9304 C26.8641,34.8924 23.0001,33.3044 19.8251,33.3024 C17.3021,33.3004 15.2341,34.3884 13.9241,35.3854 C12.0141,36.8364 12.6991,38.7474 12.9411,39.2814 C12.3291,39.2194 10.0381,38.8574 9.3771,36.9254 C9.0461,35.9594 9.1971,34.8824 9.8221,33.7224 L9.8441,33.6834 L9.8241,33.6424 C9.6831,33.3444 9.6211,33.0204 9.6371,32.6794 C9.7101,31.2604 11.2811,29.6134 14.1851,27.9174 C15.8371,26.9514 18.0771,25.8834 18.0771,25.8834 C18.0771,25.8834 17.4011,26.8814 18.0621,26.9584 C18.3961,26.9964 20.0391,26.0604 20.0391,26.0604 C20.0391,26.0604 21.0551,23.8704 20.0001,22.7994 C19.3531,22.1434 18.3781,21.7684 16.6811,21.7844 C11.9971,21.8304 6.8621,26.1024 5.9241,26.8614 C5.9441,26.4804 5.9551,25.5364 6.7321,24.5854 C6.7321,24.5854 4.5881,26.0024 2.8161,27.7984 C2.4101,24.3404 6.4091,20.8674 6.4091,20.8674 C6.4091,20.8674 5.2661,21.4294 3.2591,23.4114 C3.2671,23.1024 3.2071,21.0264 5.8361,17.8874 C8.0991,15.3574 12.2961,11.8174 19.6501,8.9074 C22.4261,7.8084 24.8351,7.2514 26.8121,7.2514 C29.0321,7.2514 30.6401,7.9574 31.5981,9.3444 C33.0381,11.4284 32.5221,14.3054 30.1521,17.4414 C29.7201,18.0114 29.5051,18.7084 30.0851,18.7474 C30.7051,18.7894 31.8051,17.2104 31.8851,17.1084 C33.6151,14.8914 35.5891,13.7664 37.7511,13.7664 C39.9131,13.7664 42.0311,15.1444 43.2401,16.2994 C44.5901,17.5874 44.9391,18.6594 44.9391,18.6594 C44.9391,18.6594 40.1051,17.1464 38.8751,21.1984 C37.8781,24.4804 36.6791,26.9834 35.2521,28.8624 L35.2081,28.9174 Z" id="Fill-25" fill="#A5A9AB"></path><path d="M32.5929,37.7485 C32.5929,37.7485 29.9949,40.7845 23.0589,42.1055 C26.4869,42.3325 39.2059,39.8995 36.7959,32.1885 C36.3059,30.6185 35.0319,29.8655 34.6059,29.6595 C30.4689,34.2865 24.8509,33.3805 24.3659,33.3425 C24.3659,33.3425 31.4209,34.9715 27.6699,38.0645 C27.6699,38.0645 28.2679,37.4035 27.6969,36.6185 C26.5609,39.9875 18.6749,41.6615 18.6749,41.6615 C18.6749,41.6615 26.5749,41.9575 32.5929,37.7485" id="Fill-26" fill="#53626F"></path><path d="M21.237,25.1342 C21.237,25.1342 23.228,24.5842 26.809,21.1972 C26.809,21.1972 24.448,25.8242 17.034,28.3742 C17.034,28.3742 16.8,28.4632 16.73,28.2092 C16.688,28.0582 16.835,27.7612 17.437,27.1962 C8.136,31.8272 10.972,33.6142 10.972,33.6142 C10.972,33.6142 12.715,31.7282 13.612,31.3032 C13.612,31.3032 15.128,32.0072 10.972,33.6142 C8.675,37.0832 11.808,38.0302 11.808,38.0302 C11.808,38.0302 11.358,36.1662 13.361,34.6442 C19.435,30.0262 23.557,33.6952 28.629,32.2082 C31.628,31.3312 35.271,29.7302 37.987,20.9232 C39.304,16.6532 43.443,17.6892 43.443,17.6892 C43.443,17.6892 42.418,16.4532 40.833,15.5712 C40.503,15.4192 40.286,15.8102 39.646,16.0042 C38.219,16.4372 38.37,15.7992 38.37,15.7992 C38.5,15.2012 39.481,15.1522 40.187,15.2472 C38.115,14.3272 35.322,14.2152 32.619,17.6812 C32.281,18.1142 31.986,18.5452 31.659,18.8502 C31.423,19.0702 31.111,19.3422 30.788,19.4722 C30.086,19.7502 29.215,19.6912 28.828,19.1282 C28.584,18.7742 28.487,18.1002 29.41,16.8812 C31.518,14.0922 32.022,11.6022 30.829,9.8742 C29.145,7.4352 24.851,7.8582 19.995,9.7802 C7.457,14.7412 4.359,21.5682 4.359,21.5682 C4.359,21.5682 10.859,15.1942 22.029,12.2842 C22.155,12.2512 7.246,16.8452 3.609,26.0992 C3.609,26.0992 8.81,19.9842 18.19,16.3292 C18.493,16.2112 10.088,20.2412 7.063,24.8582 C7.063,24.8582 12.011,21.0032 16.528,20.8512 C21.518,20.7892 21.593,23.6252 21.237,25.1342" id="Fill-27" fill="#0060AE"></path></g></g></g></g></svg> 